<svg width="692" height="202" viewBox="0 0 692 202" fill="none" xmlns="http://www.w3.org/2000/svg">
<rect x="487" y="18" width="169" height="148" rx="10" fill="#FFECE6"/>
<mask id="path-2-outside-1_3863_21470" maskUnits="userSpaceOnUse" x="34" y="57" width="445" height="110" fill="black">
<rect fill="white" x="34" y="57" width="445" height="110"/>
<path d="M79.669 166C70.8551 166 62.4418 164.869 54.4291 162.606C46.55 160.344 40.407 157.416 36 153.823L44.6136 138.651C48.7535 141.978 54.0953 144.64 60.6389 146.636C67.3162 148.499 74.2605 149.431 81.4719 149.431C90.5529 149.431 97.4304 148.1 102.104 145.438C106.912 142.643 109.316 138.784 109.316 133.86C109.316 129.867 107.379 127.006 103.507 125.275C99.7674 123.545 93.8915 121.815 85.8788 120.085C78.4003 118.488 72.2573 116.891 67.4497 115.294C62.7756 113.564 58.7693 110.902 55.4307 107.309C52.0921 103.582 50.4228 98.5915 50.4228 92.3364C50.4228 85.4159 52.3592 79.3604 56.232 74.1701C60.2383 68.9797 65.8472 64.9871 73.0586 62.1922C80.4035 59.3974 88.8836 58 98.4988 58C105.577 58 112.454 58.8651 119.131 60.5952C125.809 62.3253 131.284 64.6543 135.557 67.5823L127.945 82.7542C123.805 79.9593 118.998 77.8965 113.523 76.5656C108.047 75.1017 102.438 74.3697 96.6959 74.3697C88.0155 74.3697 81.3383 75.8336 76.6643 78.7616C71.9902 81.5564 69.6532 85.3494 69.6532 90.1405C69.6532 94.3993 71.5896 97.4603 75.4624 99.3235C79.3351 101.054 85.3446 102.784 93.4908 104.514C100.836 106.111 106.845 107.708 111.519 109.305C116.193 110.902 120.133 113.497 123.338 117.091C126.677 120.684 128.346 125.542 128.346 131.664C128.346 142.444 123.872 150.895 114.925 157.017C106.111 163.006 94.3589 166 79.669 166Z"/>
<path d="M255.542 149.83C259.148 149.83 262.42 149.231 265.358 148.033L263.355 163.604C259.348 165.201 254.607 166 249.132 166C242.321 166 236.712 164.469 232.306 161.408C227.899 158.214 225.161 153.889 224.093 148.433C219.151 154.155 213.209 158.547 206.264 161.608C199.454 164.536 191.775 166 183.228 166C174.147 166 166.068 164.203 158.99 160.61C151.912 156.884 146.37 151.56 142.363 144.64C138.357 137.719 136.354 129.601 136.354 120.285C136.354 108.307 138.958 97.5933 144.166 88.1442C149.374 78.695 156.519 71.3087 165.6 65.9852C174.815 60.6617 185.098 58 196.449 58C205.53 58 213.275 59.597 219.686 62.7911C226.229 65.9852 231.237 70.7098 234.709 76.9649L238.315 58.9982H257.545L242.922 132.462C242.522 134.458 242.321 136.189 242.321 137.652C242.321 141.645 243.456 144.706 245.727 146.835C247.997 148.832 251.269 149.83 255.542 149.83ZM187.435 149.231C195.314 149.231 202.392 147.368 208.668 143.641C215.078 139.782 220.019 134.458 223.492 127.671C227.097 120.884 228.9 113.165 228.9 104.514C228.9 95.0647 226.162 87.7449 220.687 82.5545C215.212 77.3641 207.399 74.7689 197.25 74.7689C189.371 74.7689 182.293 76.6987 176.017 80.5582C169.74 84.2847 164.799 89.5416 161.193 96.329C157.587 103.116 155.785 110.835 155.785 119.486C155.785 128.802 158.522 136.122 163.998 141.445C169.606 146.636 177.419 149.231 187.435 149.231Z"/>
<path d="M386.867 58.9982L319.36 164.802H299.729L274.289 58.9982H293.519L313.351 143.841L367.436 58.9982H386.867Z"/>
<path d="M430.325 58C444.881 58 456.433 62.0591 464.979 70.1774C473.66 78.2957 478 89.8743 478 104.913C478 107.043 477.933 108.706 477.8 109.904L390.061 126.074C392.598 141.512 403.616 149.231 423.113 149.231C429.79 149.231 436 148.166 441.743 146.037C447.485 143.908 452.226 140.913 455.965 137.054L464.178 150.828C458.97 155.752 452.627 159.545 445.148 162.207C437.803 164.736 429.924 166 421.511 166C411.094 166 402.08 164.137 394.468 160.41C386.856 156.684 380.98 151.36 376.84 144.44C372.7 137.519 370.63 129.401 370.63 120.085C370.63 108.373 373.168 97.793 378.242 88.3438C383.451 78.8946 390.528 71.5083 399.476 66.1848C408.557 60.7283 418.84 58 430.325 58ZM429.724 73.9704C418.907 73.9704 409.892 77.4307 402.681 84.3512C395.47 91.2717 391.196 100.521 389.861 112.1L460.172 99.1238C459.504 91.1386 456.433 84.9501 450.957 80.5582C445.482 76.1664 438.404 73.9704 429.724 73.9704Z"/>
</mask>
<path d="M79.669 166C70.8551 166 62.4418 164.869 54.4291 162.606C46.55 160.344 40.407 157.416 36 153.823L44.6136 138.651C48.7535 141.978 54.0953 144.64 60.6389 146.636C67.3162 148.499 74.2605 149.431 81.4719 149.431C90.5529 149.431 97.4304 148.1 102.104 145.438C106.912 142.643 109.316 138.784 109.316 133.86C109.316 129.867 107.379 127.006 103.507 125.275C99.7674 123.545 93.8915 121.815 85.8788 120.085C78.4003 118.488 72.2573 116.891 67.4497 115.294C62.7756 113.564 58.7693 110.902 55.4307 107.309C52.0921 103.582 50.4228 98.5915 50.4228 92.3364C50.4228 85.4159 52.3592 79.3604 56.232 74.1701C60.2383 68.9797 65.8472 64.9871 73.0586 62.1922C80.4035 59.3974 88.8836 58 98.4988 58C105.577 58 112.454 58.8651 119.131 60.5952C125.809 62.3253 131.284 64.6543 135.557 67.5823L127.945 82.7542C123.805 79.9593 118.998 77.8965 113.523 76.5656C108.047 75.1017 102.438 74.3697 96.6959 74.3697C88.0155 74.3697 81.3383 75.8336 76.6643 78.7616C71.9902 81.5564 69.6532 85.3494 69.6532 90.1405C69.6532 94.3993 71.5896 97.4603 75.4624 99.3235C79.3351 101.054 85.3446 102.784 93.4908 104.514C100.836 106.111 106.845 107.708 111.519 109.305C116.193 110.902 120.133 113.497 123.338 117.091C126.677 120.684 128.346 125.542 128.346 131.664C128.346 142.444 123.872 150.895 114.925 157.017C106.111 163.006 94.3589 166 79.669 166Z" fill="#FFECE6"/>
<path d="M255.542 149.83C259.148 149.83 262.42 149.231 265.358 148.033L263.355 163.604C259.348 165.201 254.607 166 249.132 166C242.321 166 236.712 164.469 232.306 161.408C227.899 158.214 225.161 153.889 224.093 148.433C219.151 154.155 213.209 158.547 206.264 161.608C199.454 164.536 191.775 166 183.228 166C174.147 166 166.068 164.203 158.99 160.61C151.912 156.884 146.37 151.56 142.363 144.64C138.357 137.719 136.354 129.601 136.354 120.285C136.354 108.307 138.958 97.5933 144.166 88.1442C149.374 78.695 156.519 71.3087 165.6 65.9852C174.815 60.6617 185.098 58 196.449 58C205.53 58 213.275 59.597 219.686 62.7911C226.229 65.9852 231.237 70.7098 234.709 76.9649L238.315 58.9982H257.545L242.922 132.462C242.522 134.458 242.321 136.189 242.321 137.652C242.321 141.645 243.456 144.706 245.727 146.835C247.997 148.832 251.269 149.83 255.542 149.83ZM187.435 149.231C195.314 149.231 202.392 147.368 208.668 143.641C215.078 139.782 220.019 134.458 223.492 127.671C227.097 120.884 228.9 113.165 228.9 104.514C228.9 95.0647 226.162 87.7449 220.687 82.5545C215.212 77.3641 207.399 74.7689 197.25 74.7689C189.371 74.7689 182.293 76.6987 176.017 80.5582C169.74 84.2847 164.799 89.5416 161.193 96.329C157.587 103.116 155.785 110.835 155.785 119.486C155.785 128.802 158.522 136.122 163.998 141.445C169.606 146.636 177.419 149.231 187.435 149.231Z" fill="#FFECE6"/>
<path d="M386.867 58.9982L319.36 164.802H299.729L274.289 58.9982H293.519L313.351 143.841L367.436 58.9982H386.867Z" fill="#FFECE6"/>
<path d="M430.325 58C444.881 58 456.433 62.0591 464.979 70.1774C473.66 78.2957 478 89.8743 478 104.913C478 107.043 477.933 108.706 477.8 109.904L390.061 126.074C392.598 141.512 403.616 149.231 423.113 149.231C429.79 149.231 436 148.166 441.743 146.037C447.485 143.908 452.226 140.913 455.965 137.054L464.178 150.828C458.97 155.752 452.627 159.545 445.148 162.207C437.803 164.736 429.924 166 421.511 166C411.094 166 402.08 164.137 394.468 160.41C386.856 156.684 380.98 151.36 376.84 144.44C372.7 137.519 370.63 129.401 370.63 120.085C370.63 108.373 373.168 97.793 378.242 88.3438C383.451 78.8946 390.528 71.5083 399.476 66.1848C408.557 60.7283 418.84 58 430.325 58ZM429.724 73.9704C418.907 73.9704 409.892 77.4307 402.681 84.3512C395.47 91.2717 391.196 100.521 389.861 112.1L460.172 99.1238C459.504 91.1386 456.433 84.9501 450.957 80.5582C445.482 76.1664 438.404 73.9704 429.724 73.9704Z" fill="#FFECE6"/>
<path d="M54.4291 162.606L54.1531 163.567L54.1574 163.569L54.4291 162.606ZM36 153.823L35.1304 153.329L34.7132 154.064L35.3681 154.598L36 153.823ZM44.6136 138.651L45.2401 137.871L44.3241 137.135L43.744 138.157L44.6136 138.651ZM60.6389 146.636L60.3471 147.592L60.3586 147.596L60.3702 147.599L60.6389 146.636ZM102.104 145.438L102.599 146.307L102.607 146.303L102.104 145.438ZM103.507 125.275L103.087 126.183L103.099 126.188L103.507 125.275ZM85.8788 120.085L86.0899 119.108L86.0877 119.107L85.8788 120.085ZM67.4497 115.294L67.1026 116.232L67.1184 116.238L67.1344 116.243L67.4497 115.294ZM55.4307 107.309L54.6859 107.976L54.6919 107.983L54.6981 107.989L55.4307 107.309ZM56.232 74.1701L55.4404 73.559L55.4354 73.5655L55.4305 73.572L56.232 74.1701ZM73.0586 62.1922L72.7029 61.2576L72.6972 61.2598L73.0586 62.1922ZM119.131 60.5952L119.382 59.6272L119.382 59.6272L119.131 60.5952ZM135.557 67.5823L136.451 68.0307L136.843 67.2506L136.123 66.7573L135.557 67.5823ZM127.945 82.7542L127.386 83.583L128.329 84.2196L128.839 83.2026L127.945 82.7542ZM113.523 76.5656L113.264 77.5317L113.275 77.5346L113.286 77.5373L113.523 76.5656ZM76.6643 78.7616L77.1775 79.6198L77.1863 79.6145L77.1951 79.609L76.6643 78.7616ZM75.4624 99.3235L75.0288 100.225L75.0416 100.231L75.0545 100.237L75.4624 99.3235ZM93.4908 104.514L93.7033 103.537L93.6986 103.536L93.4908 104.514ZM111.519 109.305L111.843 108.359L111.843 108.359L111.519 109.305ZM123.338 117.091L122.592 117.756L122.599 117.764L122.605 117.771L123.338 117.091ZM114.925 157.017L115.487 157.844L115.489 157.842L114.925 157.017ZM265.358 148.033L266.35 148.161L266.568 146.46L264.98 147.107L265.358 148.033ZM263.355 163.604L263.725 164.533L264.271 164.316L264.346 163.732L263.355 163.604ZM232.306 161.408L231.719 162.218L231.727 162.224L231.735 162.23L232.306 161.408ZM224.093 148.433L225.074 148.24L224.679 146.223L223.336 147.779L224.093 148.433ZM206.264 161.608L206.659 162.527L206.668 162.523L206.264 161.608ZM158.99 160.61L158.524 161.495L158.53 161.498L158.537 161.502L158.99 160.61ZM142.363 144.64L141.498 145.141L141.498 145.141L142.363 144.64ZM144.166 88.1442L145.042 88.6269L145.042 88.6269L144.166 88.1442ZM165.6 65.9852L165.1 65.1193L165.094 65.1225L165.6 65.9852ZM219.686 62.7911L219.24 63.6862L219.247 63.6898L219.686 62.7911ZM234.709 76.9649L233.835 77.4502L235.155 79.8277L235.69 77.1616L234.709 76.9649ZM238.315 58.9982V57.9982H237.496L237.335 58.8014L238.315 58.9982ZM257.545 58.9982L258.526 59.1934L258.764 57.9982H257.545V58.9982ZM242.922 132.462L243.903 132.659L243.903 132.657L242.922 132.462ZM245.727 146.835L245.043 147.565L245.054 147.576L245.066 147.586L245.727 146.835ZM208.668 143.641L209.179 144.501L209.184 144.498L208.668 143.641ZM223.492 127.671L222.608 127.202L222.605 127.209L222.601 127.216L223.492 127.671ZM220.687 82.5545L221.375 81.8288L221.375 81.8288L220.687 82.5545ZM176.017 80.5582L176.527 81.4181L176.534 81.4141L176.54 81.4101L176.017 80.5582ZM161.193 96.329L160.31 95.8599L160.31 95.8599L161.193 96.329ZM163.998 141.445L163.3 142.162L163.309 142.171L163.318 142.179L163.998 141.445ZM386.867 58.9982L387.71 59.536L388.691 57.9982H386.867V58.9982ZM319.36 164.802V165.802H319.908L320.203 165.34L319.36 164.802ZM299.729 164.802L298.757 165.036L298.941 165.802H299.729V164.802ZM274.289 58.9982V57.9982H273.02L273.317 59.2319L274.289 58.9982ZM293.519 58.9982L294.493 58.7705L294.313 57.9982H293.519V58.9982ZM313.351 143.841L312.377 144.069L312.918 146.381L314.194 144.379L313.351 143.841ZM367.436 58.9982V57.9982H366.888L366.593 58.4606L367.436 58.9982ZM464.979 70.1774L464.291 70.9025L464.296 70.9078L464.979 70.1774ZM477.8 109.904L477.981 110.887L478.711 110.753L478.794 110.015L477.8 109.904ZM390.061 126.074L389.88 125.09L388.915 125.268L389.074 126.236L390.061 126.074ZM441.743 146.037L441.395 145.099L441.395 145.099L441.743 146.037ZM455.965 137.054L456.824 136.541L456.155 135.42L455.247 136.358L455.965 137.054ZM464.178 150.828L464.865 151.555L465.447 151.004L465.037 150.316L464.178 150.828ZM445.148 162.207L445.474 163.153L445.483 163.149L445.148 162.207ZM394.468 160.41L394.028 161.308L394.028 161.308L394.468 160.41ZM376.84 144.44L377.698 143.927L377.698 143.927L376.84 144.44ZM378.242 88.3438L377.367 87.8611L377.361 87.8707L378.242 88.3438ZM399.476 66.1848L399.987 67.0442L399.991 67.042L399.476 66.1848ZM402.681 84.3512L401.989 83.6297L401.989 83.6297L402.681 84.3512ZM389.861 112.1L388.867 111.985L388.712 113.329L390.042 113.083L389.861 112.1ZM460.172 99.1238L460.353 100.107L461.244 99.9429L461.168 99.0405L460.172 99.1238ZM450.957 80.5582L450.332 81.3383L450.332 81.3383L450.957 80.5582ZM79.669 165C70.9416 165 62.6201 163.88 54.7009 161.644L54.1574 163.569C62.2635 165.858 70.7686 167 79.669 167V165ZM54.7051 161.645C46.9032 159.405 40.8985 156.526 36.6319 153.048L35.3681 154.598C39.9154 158.305 46.1969 161.283 54.1531 163.567L54.7051 161.645ZM36.8696 154.316L45.4832 139.144L43.744 138.157L35.1304 153.329L36.8696 154.316ZM43.9872 139.43C48.2504 142.856 53.7152 145.569 60.3471 147.592L60.9307 145.679C54.4754 143.71 49.2566 141.099 45.2401 137.871L43.9872 139.43ZM60.3702 147.599C67.1384 149.488 74.1733 150.431 81.4719 150.431V148.431C74.3476 148.431 67.494 147.51 60.9077 145.673L60.3702 147.599ZM81.4719 150.431C90.6212 150.431 97.7038 149.095 102.599 146.307L101.61 144.569C97.157 147.105 90.4846 148.431 81.4719 148.431V150.431ZM102.607 146.303C107.675 143.357 110.316 139.192 110.316 133.86H108.316C108.316 138.375 106.149 141.93 101.602 144.574L102.607 146.303ZM110.316 133.86C110.316 131.695 109.789 129.779 108.692 128.159C107.598 126.542 105.982 125.286 103.915 124.362L103.099 126.188C104.904 126.995 106.193 128.035 107.035 129.28C107.875 130.52 108.316 132.031 108.316 133.86H110.316ZM103.927 124.368C100.083 122.59 94.1185 120.841 86.0899 119.108L85.6678 121.063C93.6645 122.789 99.4516 124.501 103.087 126.183L103.927 124.368ZM86.0877 119.107C78.629 117.514 72.5249 115.926 67.765 114.345L67.1344 116.243C71.9897 117.856 78.1716 119.462 85.67 121.063L86.0877 119.107ZM67.7968 114.356C63.2672 112.679 59.3936 110.105 56.1633 106.628L54.6981 107.989C58.1451 111.699 62.2841 114.448 67.1026 116.232L67.7968 114.356ZM56.1755 106.641C53.0394 103.141 51.4228 98.4093 51.4228 92.3364H49.4228C49.4228 98.7737 51.1447 104.023 54.6859 107.976L56.1755 106.641ZM51.4228 92.3364C51.4228 85.6157 53.2987 79.7735 57.0335 74.7681L55.4305 73.572C51.4197 78.9474 49.4228 85.2161 49.4228 92.3364H51.4228ZM57.0236 74.7811C60.8999 69.7592 66.3477 65.8655 73.4199 63.1247L72.6972 61.2598C65.3466 64.1086 59.5767 68.2002 55.4404 73.559L57.0236 74.7811ZM73.4142 63.1269C80.6233 60.3837 88.9788 59 98.4988 59V57C88.7883 57 80.1837 58.4111 72.7029 61.2576L73.4142 63.1269ZM98.4988 59C105.494 59 112.287 59.8549 118.881 61.5632L119.382 59.6272C112.621 57.8753 105.659 57 98.4988 57V59ZM118.881 61.5632C125.48 63.2733 130.84 65.5626 134.992 68.4072L136.123 66.7573C131.728 63.7461 126.137 61.3773 119.382 59.6272L118.881 61.5632ZM134.664 67.1338L127.051 82.3057L128.839 83.2026L136.451 68.0307L134.664 67.1338ZM128.505 81.9253C124.255 79.0561 119.335 76.9493 113.759 75.5939L113.286 77.5373C118.661 78.8437 123.356 80.8625 127.386 83.583L128.505 81.9253ZM113.781 75.5996C108.22 74.1128 102.524 73.3697 96.6959 73.3697V75.3697C102.352 75.3697 107.874 76.0906 113.264 77.5317L113.781 75.5996ZM96.6959 73.3697C87.9263 73.3697 81.0334 74.8447 76.1334 77.9141L77.1951 79.609C81.6433 76.8226 88.1047 75.3697 96.6959 75.3697V73.3697ZM76.1511 77.9033C71.2243 80.8492 68.6532 84.9438 68.6532 90.1405H70.6532C70.6532 85.755 72.7561 82.2635 77.1775 79.6198L76.1511 77.9033ZM68.6532 90.1405C68.6532 92.4253 69.1743 94.4481 70.2604 96.1649C71.3461 97.8812 72.9555 99.2271 75.0288 100.225L75.8959 98.4223C74.0965 97.5566 72.8013 96.4405 71.9506 95.0957C71.1002 93.7515 70.6532 92.1144 70.6532 90.1405H68.6532ZM75.0545 100.237C79.0267 102.011 85.1205 103.758 93.2831 105.492L93.6986 103.536C85.5688 101.809 79.6435 100.096 75.8702 98.4104L75.0545 100.237ZM93.2784 105.491C100.603 107.084 106.572 108.671 111.196 110.251L111.843 108.359C107.119 106.745 101.069 105.138 93.7033 103.537L93.2784 105.491ZM111.196 110.251C115.712 111.794 119.504 114.295 122.592 117.756L124.084 116.425C120.762 112.7 116.675 110.01 111.843 108.359L111.196 110.251ZM122.605 117.771C125.732 121.137 127.346 125.729 127.346 131.664H129.346C129.346 125.355 127.621 120.231 124.071 116.41L122.605 117.771ZM127.346 131.664C127.346 142.111 123.037 150.254 114.36 156.191L115.489 157.842C124.707 151.535 129.346 142.776 129.346 131.664H127.346ZM114.363 156.19C105.766 162.03 94.2321 165 79.669 165V167C94.4857 167 106.455 163.981 115.487 157.844L114.363 156.19ZM255.542 150.83C259.26 150.83 262.662 150.212 265.735 148.959L264.98 147.107C262.177 148.25 259.036 148.83 255.542 148.83V150.83ZM264.366 147.906L262.363 163.477L264.346 163.732L266.35 148.161L264.366 147.906ZM262.984 162.676C259.123 164.215 254.513 165 249.132 165V167C254.701 167 259.574 166.188 263.725 164.533L262.984 162.676ZM249.132 165C242.47 165 237.075 163.504 232.876 160.587L231.735 162.23C236.35 165.435 242.172 167 249.132 167V165ZM232.892 160.599C228.695 157.557 226.095 153.455 225.074 148.24L223.111 148.625C224.227 154.324 227.102 158.872 231.719 162.218L232.892 160.599ZM223.336 147.779C218.492 153.389 212.67 157.692 205.861 160.693L206.668 162.523C213.747 159.403 219.811 154.922 224.849 149.086L223.336 147.779ZM205.869 160.689C199.201 163.556 191.66 165 183.228 165V167C191.89 167 199.706 165.516 206.659 162.527L205.869 160.689ZM183.228 165C174.281 165 166.361 163.231 159.442 159.718L158.537 161.502C165.774 165.176 174.012 167 183.228 167V165ZM159.456 159.725C152.544 156.086 147.141 150.896 143.229 144.139L141.498 145.141C145.599 152.224 151.279 157.681 158.524 161.495L159.456 159.725ZM143.229 144.139C139.324 137.394 137.354 129.454 137.354 120.285H135.354C135.354 129.747 137.39 138.044 141.498 145.141L143.229 144.139ZM137.354 120.285C137.354 108.457 139.924 97.9124 145.042 88.6269L143.29 87.6615C137.992 97.2742 135.354 108.157 135.354 120.285H137.354ZM145.042 88.6269C150.166 79.3312 157.184 72.078 166.106 66.8479L165.094 65.1225C155.854 70.5394 148.583 78.0588 143.29 87.6615L145.042 88.6269ZM166.1 66.8511C175.153 61.6214 185.261 59 196.449 59V57C184.934 57 174.477 59.7021 165.1 65.1193L166.1 66.8511ZM196.449 59C205.415 59 213 60.5771 219.24 63.6862L220.132 61.8961C213.551 58.617 205.644 57 196.449 57V59ZM219.247 63.6898C225.61 66.7957 230.464 71.3777 233.835 77.4502L235.584 76.4795C232.01 70.0419 226.849 65.1747 220.124 61.8925L219.247 63.6898ZM235.69 77.1616L239.295 59.1949L237.335 58.8014L233.729 76.7681L235.69 77.1616ZM238.315 59.9982H257.545V57.9982H238.315V59.9982ZM256.565 58.8029L241.942 132.267L243.903 132.657L258.526 59.1934L256.565 58.8029ZM241.942 132.265C241.533 134.303 241.321 136.102 241.321 137.652H243.321C243.321 136.275 243.51 134.613 243.903 132.659L241.942 132.265ZM241.321 137.652C241.321 141.839 242.518 145.196 245.043 147.565L246.411 146.106C244.395 144.216 243.321 141.451 243.321 137.652H241.321ZM245.066 147.586C247.582 149.799 251.126 150.83 255.542 150.83V148.83C251.412 148.83 248.412 147.865 246.387 146.085L245.066 147.586ZM187.435 150.231C195.479 150.231 202.735 148.327 209.179 144.501L208.158 142.782C202.048 146.409 195.149 148.231 187.435 148.231V150.231ZM209.184 144.498C215.757 140.54 220.826 135.077 224.382 128.126L222.601 127.216C219.212 133.84 214.4 139.023 208.152 142.785L209.184 144.498ZM224.375 128.14C228.066 121.191 229.9 113.307 229.9 104.514H227.9C227.9 113.022 226.128 120.576 222.608 127.202L224.375 128.14ZM229.9 104.514C229.9 94.864 227.098 87.2534 221.375 81.8288L219.999 83.2803C225.227 88.2364 227.9 95.2654 227.9 104.514H229.9ZM221.375 81.8288C215.657 76.4087 207.565 73.7689 197.25 73.7689V75.7689C207.234 75.7689 214.766 78.3196 219.999 83.2803L221.375 81.8288ZM197.25 73.7689C189.199 73.7689 181.938 75.7432 175.493 79.7064L176.54 81.4101C182.648 77.6542 189.543 75.7689 197.25 75.7689V73.7689ZM175.506 79.6984C169.063 83.5234 163.997 88.9195 160.31 95.8599L162.076 96.7982C165.601 90.1637 170.417 85.0459 176.527 81.4181L175.506 79.6984ZM160.31 95.8599C156.618 102.809 154.785 110.693 154.785 119.486H156.785C156.785 110.978 158.557 103.424 162.076 96.7982L160.31 95.8599ZM154.785 119.486C154.785 129.009 157.59 136.611 163.3 142.162L164.695 140.728C159.454 135.633 156.785 128.596 156.785 119.486H154.785ZM163.318 142.179C169.164 147.589 177.247 150.231 187.435 150.231V148.231C177.59 148.231 170.049 145.683 164.677 140.712L163.318 142.179ZM386.024 58.4603L318.517 164.264L320.203 165.34L387.71 59.536L386.024 58.4603ZM319.36 163.802H299.729V165.802H319.36V163.802ZM300.702 164.568L275.261 58.7644L273.317 59.2319L298.757 165.036L300.702 164.568ZM274.289 59.9982H293.519V57.9982H274.289V59.9982ZM292.546 59.2258L312.377 144.069L314.325 143.613L294.493 58.7705L292.546 59.2258ZM314.194 144.379L368.279 59.5357L366.593 58.4606L312.508 143.303L314.194 144.379ZM367.436 59.9982H386.867V57.9982H367.436V59.9982ZM430.325 59C444.688 59 455.971 63 464.291 70.9025L465.668 69.4524C456.894 61.1183 445.074 57 430.325 57V59ZM464.296 70.9078C472.724 78.7896 477 90.073 477 104.913H479C479 89.6756 474.596 77.8019 465.663 69.4471L464.296 70.9078ZM477 104.913C477 107.029 476.933 108.65 476.806 109.793L478.794 110.015C478.933 108.763 479 107.056 479 104.913H477ZM477.618 108.92L389.88 125.09L390.242 127.057L477.981 110.887L477.618 108.92ZM389.074 126.236C390.379 134.174 393.888 140.221 399.653 144.261C405.39 148.28 413.247 150.231 423.113 150.231V148.231C413.482 148.231 406.081 146.322 400.801 142.623C395.549 138.943 392.281 133.412 391.048 125.912L389.074 126.236ZM423.113 150.231C429.898 150.231 436.227 149.149 442.09 146.975L441.395 145.099C435.774 147.184 429.683 148.231 423.113 148.231V150.231ZM442.09 146.975C447.953 144.801 452.827 141.73 456.683 137.749L455.247 136.358C451.625 140.096 447.017 143.015 441.395 145.099L442.09 146.975ZM455.106 137.566L463.319 151.34L465.037 150.316L456.824 136.541L455.106 137.566ZM463.491 150.101C458.394 154.92 452.175 158.645 444.813 161.265L445.483 163.149C453.079 160.446 459.546 156.584 464.865 151.555L463.491 150.101ZM444.823 161.261C437.591 163.751 429.822 165 421.511 165V167C430.026 167 438.016 165.72 445.474 163.153L444.823 161.261ZM421.511 165C411.212 165 402.355 163.158 394.908 159.512L394.028 161.308C401.805 165.116 410.976 167 421.511 167V165ZM394.908 159.512C387.46 155.866 381.734 150.672 377.698 143.927L375.982 144.953C380.226 152.049 386.252 157.502 394.028 161.308L394.908 159.512ZM377.698 143.927C373.665 137.184 371.63 129.249 371.63 120.085H369.63C369.63 129.553 371.736 137.855 375.982 144.953L377.698 143.927ZM371.63 120.085C371.63 108.523 374.134 98.1076 379.123 88.8169L377.361 87.8707C372.202 97.4784 369.63 108.224 369.63 120.085H371.63ZM379.118 88.8265C384.244 79.5272 391.198 72.2734 399.987 67.0442L398.965 65.3254C389.859 70.7432 382.657 78.2621 377.367 87.8611L379.118 88.8265ZM399.991 67.042C408.903 61.6867 419.006 59 430.325 59V57C418.674 57 408.21 59.7698 398.961 65.3277L399.991 67.042ZM429.724 72.9704C418.672 72.9704 409.402 76.515 401.989 83.6297L403.373 85.0727C410.382 78.3464 419.141 74.9704 429.724 74.9704V72.9704ZM401.989 83.6297C394.582 90.7374 390.225 100.216 388.867 111.985L390.854 112.214C392.168 100.827 396.357 91.8061 403.373 85.0727L401.989 83.6297ZM390.042 113.083L460.353 100.107L459.99 98.1405L389.679 111.116L390.042 113.083ZM461.168 99.0405C460.481 90.8244 457.303 84.3665 451.583 79.7782L450.332 81.3383C455.562 85.5337 458.527 91.4528 459.175 99.2072L461.168 99.0405ZM451.583 79.7782C445.891 75.2128 438.576 72.9704 429.724 72.9704V74.9704C438.232 74.9704 445.073 77.1199 450.332 81.3383L451.583 79.7782Z" fill="#FFECE6" mask="url(#path-2-outside-1_3863_21470)"/>
<path d="M512.028 95.4835H527.596L514.5 166H499L512.028 95.4835ZM524.353 78.6407C521.542 78.6407 519.218 77.705 517.38 75.8335C515.542 73.9621 514.623 71.7054 514.623 69.0634C514.623 65.9811 515.65 63.3941 517.704 61.3025C519.866 59.1008 522.569 58 525.812 58C528.623 58 530.948 58.9357 532.786 60.8071C534.732 62.5685 535.705 64.7151 535.705 67.247C535.705 70.6596 534.624 73.4117 532.461 75.5033C530.407 77.5949 527.704 78.6407 524.353 78.6407Z" fill="#FF4609"/>
<path d="M627.703 92.3461C617.864 85.9612 606.567 82.2184 593.809 81.1176L575.555 166H559.5L577.755 80.7873C563.484 81.7781 551.213 85.5209 540.942 92.0159L536.402 78.9709C543.105 74.7878 550.835 71.5953 559.592 69.3937C568.349 67.192 577.268 66.0912 586.35 66.0912C605.594 66.0912 621.811 70.4945 635 79.3012L627.703 92.3461Z" fill="#FF4609"/>
</svg>
